<?xml version="1.0" encoding="UTF-8"?>
<svg id="Layer_1" xmlns="http://www.w3.org/2000/svg" version="1.1" viewBox="0 0 24 24">
  <!-- Generator: Adobe Illustrator 30.2.1, SVG Export Plug-In . SVG Version: 2.1.1 Build 1)  -->
  <defs>
    <style>
      .st0 {
        fill: #ff0080;
      }
    </style>
  </defs>
  <path class="st0" d="M17.5,4.5c-1.9,0-4.1.4-5.5,1.5-1.4-1.1-3.6-1.5-5.5-1.5s-3,.2-4.3.8c-.7.3-1.2,1-1.2,1.8v11.3c0,1.3,1.2,2.3,2.5,1.9,1-.2,2-.4,3-.4,1.6,0,3.2.3,4.6.9.6.3,1.3.3,1.9,0,1.3-.7,3-.9,4.6-.9s2,.1,3,.4c1.3.3,2.5-.6,2.5-1.9V7.1c0-.8-.5-1.5-1.2-1.8-1.3-.6-2.8-.8-4.3-.8ZM21,17.2c0,.6-.6,1.1-1.2,1-.8-.1-1.5-.2-2.3-.2-1.7,0-4.1.6-5.5,1.5v-11.5c1.4-.8,3.8-1.5,5.5-1.5s1.8,0,2.7.3c.5,0,.8.5.8,1v9.5Z"/>
  <path class="st0" d="M14,11c-.3,0-.6-.2-.7-.5-.1-.4,0-.8.5-.9,1.5-.5,3.5-.7,5.4-.4.4,0,.7.4.7.8,0,.4-.4.7-.8.7-1.6-.2-3.4,0-4.7.4,0,0-.2,0-.2,0Z"/>
  <path class="st0" d="M14,13.7c-.3,0-.6-.2-.7-.5-.1-.4,0-.8.5-.9,1.5-.5,3.5-.7,5.4-.4.4,0,.7.4.7.8,0,.4-.4.7-.8.7-1.6-.2-3.4,0-4.7.4,0,0-.2,0-.2,0Z"/>
  <path class="st0" d="M14,16.3c-.3,0-.6-.2-.7-.5-.1-.4,0-.8.5-.9,1.5-.5,3.5-.7,5.4-.4.4,0,.7.4.7.8,0,.4-.4.7-.8.7-1.6-.2-3.4,0-4.7.4,0,0-.2,0-.2,0Z"/>
</svg>