<?xml version="1.0" encoding="UTF-8"?>
<svg id="Layer_1" xmlns="http://www.w3.org/2000/svg" version="1.1" viewBox="0 0 104 38">
  <!-- Generator: Adobe Illustrator 30.2.1, SVG Export Plug-In . SVG Version: 2.1.1 Build 1)  -->
  <path d="M24.6,18.2c0,0-.2,0-.2,0,1.2-.6,2.1-1.4,2.8-2.3.8-1.1,1.2-2.4,1.2-3.8,0-2.2-.9-3.9-2.8-5.3-1.9-1.4-4.8-2.1-8.7-2.1H1.6v28.5h16c3.9,0,6.9-.7,9-2.1,2-1.4,3.1-3.3,3.1-5.8s-.4-3.1-1.3-4.2-2.1-2.1-3.7-2.7ZM15.5,11.3c1.1,0,1.9.2,2.4.5.5.4.8.9.8,1.6s-.3,1.2-.8,1.6c-.5.4-1.3.5-2.4.5h-4.5v-4.2h4.5ZM19.1,25.8c-.5.4-1.3.6-2.4.6h-5.8v-4.5h5.8c1.1,0,1.8.2,2.4.6.5.4.8.9.8,1.7s-.3,1.3-.8,1.7Z"/>
  <path d="M50.2,11.7c-1.9-.9-3.9-1.3-6.1-1.3s-4.5.5-6.4,1.5c-1.9,1-3.4,2.3-4.5,4.1-1.1,1.7-1.6,3.7-1.6,6s.6,4.2,1.7,5.9c1.1,1.7,2.7,3.1,4.7,4.1,2,1,4.4,1.5,7.1,1.5s4.1-.3,5.7-.9c1.6-.6,2.9-1.5,4-2.7l-4.8-4.8c-.7.5-1.4.9-2.1,1.2-.7.3-1.5.4-2.5.4s-1.9-.2-2.6-.5c-.7-.3-1.2-.8-1.6-1.5-.1-.2-.2-.4-.3-.6h15.4c0-.3,0-.7,0-1.1,0-.4,0-.8,0-1.1,0-2.5-.6-4.6-1.7-6.3-1.1-1.7-2.6-3-4.5-3.9ZM42.2,17.2c.6-.3,1.2-.5,2-.5s1.4.2,2,.5c.5.3,1,.8,1.3,1.4.2.3.3.7.4,1h-7.2c0-.4.2-.7.3-1,.3-.6.7-1.1,1.3-1.4Z"/>
  <path d="M71.4,26.5c-.5,0-1-.2-1.4-.6-.4-.4-.5-.9-.5-1.6v-6.8h4.6v-6.7h-4.6v-5h-9.2v5h-3v6.7h3v6.9c0,3.1.9,5.3,2.6,6.8,1.7,1.5,4.1,2.2,7.2,2.2s2.1,0,3.1-.3c1-.2,1.8-.5,2.5-.9l-2.2-6.4c-.6.4-1.3.6-2.1.6Z"/>
  <path d="M100.4,15.9c-1.1-1.7-2.6-3.1-4.6-4.1-2-1-4.2-1.5-6.7-1.5s-4.7.5-6.7,1.5c-1.9,1-3.5,2.3-4.6,4.1-1.1,1.7-1.7,3.7-1.7,6s.6,4.2,1.7,6c1.1,1.7,2.6,3.1,4.6,4.1,1.9,1,4.2,1.5,6.7,1.5s4.8-.5,6.7-1.5c2-1,3.5-2.4,4.6-4.1,1.1-1.7,1.6-3.7,1.6-6s-.5-4.2-1.6-6ZM92.2,24.3c-.3.7-.8,1.2-1.3,1.5-.5.3-1.2.5-1.8.5s-1.3-.2-1.8-.5c-.5-.3-1-.8-1.3-1.5-.3-.7-.5-1.5-.5-2.4s.2-1.8.5-2.4c.3-.6.8-1.1,1.3-1.4.5-.3,1.2-.5,1.8-.5s1.3.2,1.8.5c.5.3,1,.8,1.3,1.4.3.6.5,1.4.5,2.4s-.2,1.8-.5,2.4Z"/>
</svg>